<?xml version="1.0" encoding="utf-8"?>
<!-- Generator: Adobe Illustrator 16.0.3, SVG Export Plug-In . SVG Version: 6.00 Build 0)  -->
<!DOCTYPE svg PUBLIC "-//W3C//DTD SVG 1.1//EN" "http://www.w3.org/Graphics/SVG/1.1/DTD/svg11.dtd">
<svg version="1.1" id="Capa_1" xmlns="http://www.w3.org/2000/svg" xmlns:xlink="http://www.w3.org/1999/xlink" x="0px" y="0px"
	 width="160px" height="160px" viewBox="0 0 160 160" enable-background="new 0 0 160 160" xml:space="preserve">
<path fill="#414142" d="M114.38,26.088c9.416-2.595,19.41-2.407,28.979-0.765c5.723,1.02,11.186,3.141,16.392,5.679
	c-0.046,6.037-0.004,12.073-0.021,18.104c-2.569,0.321-4.291-1.805-6.281-3.013c-6.332-4.502-13.958-7.592-21.836-7.25
	c-7.5-0.137-15.264,3.176-19.526,9.509c-4.639,6.842-5.099,15.673-3.574,23.575c1.208,6.219,4.945,12.077,10.635,15.07
	c6.276,3.468,13.664,3.569,20.64,3.223c0.01-5.063,0-10.121,0.004-15.183c-5.128-0.005-10.258,0.005-15.382-0.005
	c-0.011-4.926-0.011-9.851-0.005-14.78c11.863,0,23.731-0.005,35.597,0.005c0,3.9,0,7.806,0,11.711c0,8.855,0,17.706,0,26.563
	c-9.416,3.369-19.293,5.74-29.326,5.995c-10.288,0.25-21.128-1.769-29.447-8.178C93.497,90.567,88.781,81.4,87.618,71.901
	c-1.452-10.772-0.071-22.458,6.322-31.522C98.769,33.368,106.187,28.316,114.38,26.088z"/>
<path fill="#414142" d="M29.033,25.578c2.584,0.005,5.175,0.005,7.759,0.005c5.037,0.016,10.074-0.031,15.112,0.025
	c4.634,12.68,9.325,25.339,14.021,37.993c1.035,2.932,2.151,5.828,3.212,8.749c3.778,10.238,7.571,20.471,11.333,30.718
	c-6.842,0.005-13.689,0.041-20.536-0.021c-1.739-5.271-3.538-10.522-5.338-15.77c-5.945-0.01-11.885-0.004-17.824-0.004
	c-3.671,0-7.347-0.006-11.018,0.004c-1.794,5.262-3.594,10.523-5.348,15.8c-6.668,0-13.337,0.005-20.006-0.005
	C9.955,77.25,19.458,51.401,29.033,25.578 M30.613,72.978c6.388,0.031,12.771,0.015,19.16,0.021
	c-3.186-9.223-6.357-18.451-9.57-27.664C36.92,54.517,33.8,63.76,30.613,72.978z"/>
<path fill="#414142" d="M156.9,119.005c0.013,6.707-0.012,13.412-0.008,20.123c-50.67-0.059-101.33-0.084-152-0.136
	c0.006-6.706,0.002-13.406,0.026-20.111c20.33,0.017,40.66,0.033,61,0.05C96.249,118.956,126.569,118.985,156.9,119.005z"/>
</svg>
