<?xml version="1.0" encoding="utf-8"?>
<!-- Generator: Adobe Illustrator 16.0.3, SVG Export Plug-In . SVG Version: 6.00 Build 0)  -->
<!DOCTYPE svg PUBLIC "-//W3C//DTD SVG 1.1//EN" "http://www.w3.org/Graphics/SVG/1.1/DTD/svg11.dtd">
<svg version="1.1" id="Capa_1" xmlns="http://www.w3.org/2000/svg" xmlns:xlink="http://www.w3.org/1999/xlink" x="0px" y="0px"
	 width="2398px" height="512px" viewBox="0 0 2398 512" enable-background="new 0 0 2398 512" xml:space="preserve">
<g id="_x23_414141ff">
	<path fill="#414141" d="M399.614,50.32c24.467-6.751,50.422-6.335,75.292-2.188c15.394,2.537,29.982,8.389,44.046,14.952
		c0.123,15.984,0.027,31.955,0.054,47.939c-7.085,0.51-11.863-5.262-17.393-8.63c-16.426-11.528-36.183-19.34-56.501-18.495
		c-19.755-0.389-40.223,8.309-51.483,24.963c-12.267,18.024-13.475,41.323-9.449,62.166c3.194,16.388,13.072,31.821,28.077,39.672
		c16.509,9.085,35.916,9.327,54.249,8.44c0.026-13.313,0-26.639,0.013-39.966c-13.502,0-27.003,0-40.491,0
		c-0.027-12.978-0.027-25.942-0.014-38.92c31.231,0,62.475,0,93.705,0c0,10.281,0,20.547,0,30.828c0,23.312,0.013,46.638,0,69.949
		c-29.445,10.442-60.729,17.516-92.121,15.422c-23.568-1.208-47.551-8.307-65.803-23.741
		c-18.548-15.233-29.633-38.142-32.612-61.737c-3.811-28.373-0.202-59.133,16.628-83.022
		C358.519,69.498,378.047,56.185,399.614,50.32z"/>
	<path fill="#414141" d="M1584.372,56.842c25.889-13.018,56.179-13.944,84.255-8.925c14.092,2.376,27.393,7.824,40.251,13.89
		c0.053,16.32,0,32.626,0.026,48.946c-1.919-0.027-3.811-0.054-5.663-0.08c-11.758-9.985-24.587-19.233-39.417-23.984
		c-21.272-6.791-47.31-1.892-61.764,16.012c-15.286,18.991-16.843,45.229-13.031,68.393c2.751,13.81,9.528,27.419,20.976,36.022
		c16.025,12.038,38.277,13.809,56.932,7.462c13.972-4.777,25.903-13.877,37.043-23.326c1.61,0,3.248,0,4.925,0.014
		c-0.015,16.079-0.015,32.171-0.015,48.263c-10.977,4.857-21.981,9.876-33.698,12.668c-17.22,4.857-35.364,5.65-53.094,3.865
		c-21.138-2.106-42.262-9.664-58.153-24.104c-17.245-15.515-26.894-38.075-29.686-60.836c-3.007-24.762-0.927-50.852,10.145-73.533
		C1552.805,80.141,1566.896,65.365,1584.372,56.842z"/>
	<path fill="#414141" d="M2202.513,46.187c31.055-3.222,62.769,1.624,91.959,12.535c0,15.542,0,31.096,0,46.638
		c-1.771,0-3.517-0.014-5.207-0.014c-23.285-17.5-53.509-26.292-82.472-21.688c-7.784,1.531-16.186,4.294-20.91,11.099
		c-4.683,6.55-2.684,16.803,4.322,20.896c7.636,4.536,16.549,6.107,25.11,8.039c20.736,4.389,42.249,8.012,60.904,18.682
		c11.354,6.402,20.736,16.87,24.024,29.7c4.078,15.662,2.536,33.15-5.893,47.161c-8.295,13.783-22.092,23.433-36.826,29.298
		c-16.792,6.671-35.057,8.294-52.974,8.401c-12.119-0.47-24.291-1.047-36.196-3.476c-13.662-2.832-27.016-7.034-39.954-12.226
		c-0.04-16.253-0.014-32.519-0.014-48.771c5.96-1.034,9.825,4.013,14.455,6.763c24.358,15.69,54.327,23.542,83.182,19.004
		c7.328-1.14,14.845-4.065,19.742-9.876c4.295-6.066,3.84-15.382-1.718-20.548c-5.689-5.409-13.488-7.609-20.936-9.313
		c-12.723-3.02-25.702-4.885-38.304-8.388c-17.406-5.127-35.887-12.522-46.343-28.238c-13.045-20.494-12.078-50.087,4.791-68.219
		C2158.385,57.083,2180.597,48.682,2202.513,46.187z"/>
	<path fill="#414141" d="M1921.263,69.176c16.87-15.125,39.512-22.373,61.856-23.675c-0.065,13.112,0.041,26.211-0.065,39.31
		c-14.146,2.698-26.333,12.857-32.157,25.942c-8.04,17.474-9.059,37.377-6.911,56.248c1.69,13.38,6.335,26.882,15.515,37.014
		c6.146,6.831,14.615,11.261,23.58,13.139c0.039,13.1,0.014,26.198,0.014,39.284c-23.863-1.262-48.088-9.704-65.173-26.882
		c-15.983-15.38-25.177-36.759-27.955-58.555c-2.201-17.555-1.743-35.579,2.403-52.825
		C1896.798,99.44,1906.715,81.899,1921.263,69.176z"/>
	<path fill="#414141" d="M2000.5,45.313c16.924,0.725,33.969,4.322,48.933,12.482c18.347,9.824,32.842,26.345,40.611,45.617
		c8.617,21.595,10.188,45.551,7.087,68.447c-3.181,24.252-14.736,47.806-34.008,63.239c-17.488,14.374-40.264,20.777-62.595,21.567
		c0-12.925-0.014-25.834,0.012-38.746c8.737-1.516,17.381-4.777,23.983-10.871c9.785-8.844,15.461-21.474,17.81-34.304
		c2.725-15.554,2.657-31.7-0.805-47.134c-3.141-12.723-9.314-25.365-20.091-33.271c-6.067-4.63-13.502-6.898-20.897-8.267
		C2000.5,71.148,2000.567,58.225,2000.5,45.313z"/>
	<path fill="#414141" d="M174.788,49.125c20.104-0.282,40.222-0.094,60.327-0.107c0.536,1.476,1.073,2.939,1.624,4.415
		c24.506,66.527,49.133,133.001,73.641,199.529c-18.011,0.026-36.036,0.08-54.047-0.027c-4.616-13.877-9.327-27.728-14.078-41.551
		c-1.771,0-3.53,0-5.274,0c-23.553,0.013-47.094-0.013-70.647,0.013c-4.725,13.852-9.463,27.702-14.092,41.591
		c-17.554,0-35.096,0.014-52.65,0C124.646,185.025,149.864,117.129,174.788,49.125 M204.354,100.971
		c-8.631,24.197-16.871,48.516-25.246,72.795c16.816,0.094,33.633,0.013,50.449,0.04
		C221.156,149.527,212.835,125.222,204.354,100.971z"/>
	<path fill="#414141" d="M766.583,49.004c49.041-0.026,98.066-0.013,147.106-0.013c0,12.978,0,25.943,0,38.921
		c-31.74,0-63.481-0.014-95.208,0c0,12.079,0,24.158,0,36.236c29.473,0,58.944,0,88.417,0c0,12.978,0,25.942,0,38.92
		c-29.137,0.013-58.261-0.013-87.397,0.013h-1.006c-0.026,16.991-0.014,33.982-0.026,50.986c31.739,0.013,63.48-0.013,95.22,0
		c0,12.978,0,25.942,0,38.92c-49.025,0-98.065,0-147.093,0c-0.028-27.297,0-54.582-0.013-81.88
		C766.583,130.403,766.596,89.697,766.583,49.004z"/>
	<path fill="#414141" d="M958.487,49.031c27.5-0.094,55,0,82.5-0.053c13.621,0.282,27.405,0.322,40.812,3.113
		c17.3,3.892,34.05,14.776,41.217,31.499c5.569,14.253,4.764,30.438,0.147,44.839c-5.851,17.206-21.11,28.976-36.787,36.88
		c1.639,2.107,3.288,4.214,4.94,6.335c21.043,27.11,42.074,54.248,63.132,81.343c-21.258,0-42.518-0.012-63.79,0.014
		c-18.534-25.057-37.055-50.113-55.617-75.157c-8.212-0.026-16.44-0.013-24.653-0.013c0.013,25.057,0,50.101,0.013,75.156
		c-17.313-0.012-34.613,0.027-51.913-0.026c0.027-27.271,0.015-54.556,0.015-81.841C958.487,130.43,958.528,89.724,958.487,49.031
		 M1010.4,86.569c0,17.891,0,35.781,0,53.684c6.16,0,12.32,0.013,18.493-0.013c11.892-0.202,25.42,0.403,35.002-7.932
		c9.314-7.368,10.898-21.111,7.007-31.727c-3.704-9.072-14.066-12.75-23.098-13.568C1035.349,86.261,1022.868,86.677,1010.4,86.569z
		"/>
	<path fill="#414141" d="M1154.473,49.004c18.292,0.027,36.599-0.107,54.905,0.067c16.387,47.886,32.855,95.758,49.376,143.59
		c16.641-47.832,33.029-95.758,49.47-143.67c17.835,0,35.673,0,53.508,0c-14.843,40.679-29.659,81.357-44.489,122.037
		c-9.932,27.31-19.971,54.583-29.821,81.935c-19.528,0.066-39.055,0.014-58.582,0.026c-9.999-27.431-19.998-54.864-30.01-82.296
		C1184.04,130.121,1169.276,89.549,1154.473,49.004z"/>
	<path fill="#414141" d="M1382.776,48.991c39.672,0,79.332,0,119.004,0c0,12.522,0,25.057,0,37.578c-11.152,0-22.294,0-33.433,0
		c0,28.158,0,56.314,0,84.472c-0.013,14.79-0.013,29.58,0,44.369c11.139,0,22.28,0,33.433,0c0,12.522,0,25.057,0,37.578
		c-39.659,0-79.332,0-118.99,0c-0.014-12.521-0.014-25.056,0-37.578c11.139,0,22.279,0,33.444,0c0-14.775-0.014-29.552,0-44.329
		c0-28.17,0-56.341,0-84.512c-11.152,0-22.306,0-33.458,0C1382.776,74.048,1382.776,61.513,1382.776,48.991z"/>
	<path fill="#414141" d="M1738.431,48.991c39.671,0,79.332,0,119.003,0c0,12.522,0,25.057,0,37.578c-11.151,0-22.293,0-33.432,0
		c0,28.184,0,56.381,0,84.565c-0.013,14.763-0.013,29.513,0,44.275c11.139,0,22.28,0,33.432,0c0,12.522,0,25.057,0,37.578
		c-39.658,0-79.332,0-118.99,0c-0.013-12.521-0.013-25.056,0-37.578c11.14,0,22.279,0,33.432,0c0.014-14.802,0-29.592,0.014-44.396
		c0-28.144,0-56.301,0-84.445c-11.152,0-22.306,0-33.458,0C1738.431,74.048,1738.431,61.513,1738.431,48.991z"/>
	<path fill="#414141" d="M1507.766,326.778c4.228,0,8.468,0,12.736,0c0.013,36.25-0.027,72.485-0.013,108.735
		c-4.256,0-8.496,0-12.724,0c-0.014-2.658,0-5.303,0.041-7.945c-8.106,6.858-18.603,11.984-29.46,10.146
		c-8.951-0.966-16.548-7.247-20.508-15.111c-5.099-10.079-5.878-21.769-4.831-32.841c1.529-12.871,8.388-26.037,20.588-31.634
		c10.885-5.18,23.782-3.127,34.144,2.362C1507.778,349.244,1507.739,338.01,1507.766,326.778 M1467.314,384.112
		c-2.509,10.024-2.295,20.896,1.114,30.693c2.147,6.468,8.349,11.38,15.273,11.287c8.911,0.979,16.936-3.664,23.956-8.564
		c0.254-15.447,0.054-30.906,0.107-46.354c-7.771-3.759-16.669-5.075-25.164-3.491
		C1474.816,369.577,1469.234,376.569,1467.314,384.112z"/>
	<path fill="#414141" d="M1919.734,326.778c4.226,0,8.467,0,12.722,0c0.015,36.25-0.039,72.485-0.014,108.735
		c-4.255,0-8.482,0-12.696,0C1919.746,399.264,1919.721,363.028,1919.734,326.778z"/>
	<path fill="#414141" d="M318.271,332.146c21.863,0,43.738,0,65.601,0c0,4.04,0,8.079,0,12.132c-17.447,0-34.895-0.014-52.341,0
		c0.026,9.824,0.026,19.649,0,29.474c15.058,0.013,30.103,0,45.161,0.013c-0.013,4.027-0.013,8.053-0.013,12.092
		c-15.045,0-30.103-0.013-45.147,0.014c0.013,16.548,0,33.096,0.013,49.645c-4.429,0-8.844,0-13.26,0
		C318.297,401.062,318.271,366.598,318.271,332.146z"/>
	<path fill="#414141" d="M895.181,332.347c6.054-0.295,12.119-0.214,18.186-0.188c12.508,34.465,25.07,68.902,37.618,103.354
		c-4.79,0-9.568,0-14.333-0.014c-3.301-9.407-6.71-18.775-10.093-28.158c-15.03-0.039-30.048-0.012-45.081,0
		c-3.435,9.356-6.803,18.736-10.105,28.146c-4.55,0.026-9.1,0.026-13.636,0.013C870.178,401.103,882.941,366.813,895.181,332.347
		 M903.999,343.821c-6.187,17.125-12.227,34.305-18.413,51.43c12.253,0,24.52,0,36.772,0
		C916.185,378.126,910.213,360.934,903.999,343.821z"/>
	<path fill="#414141" d="M1418.261,332.146c4.858,0,9.729,0,14.616,0.014c-0.015,4.482-0.015,8.965,0,13.446
		c-4.887,0-9.758,0-14.616,0.014C1418.247,341.124,1418.247,336.642,1418.261,332.146z"/>
	<path fill="#414141" d="M1794.047,332.146c4.857,0,9.729,0,14.615,0.014c-0.015,4.482-0.015,8.965,0,13.446
		c-4.886,0-9.758,0-14.615,0.014C1794.033,341.124,1794.033,336.642,1794.047,332.146z"/>
	<path fill="#414141" d="M400.299,358.745c12.857-3.181,26.452-5.06,39.538-2.146c6.04,1.355,11.851,4.67,15.246,9.958
		c2.94,4.47,3.839,9.932,3.839,15.206c0.013,17.917-0.013,35.834,0,53.751c-4.214,0-8.429,0-12.643,0
		c-0.027-2.765-0.041-5.53-0.067-8.281c-8.885,7.341-20.453,12.387-32.156,10.456c-10.455-1.463-19.38-10.496-20.374-21.059
		c-0.551-6.214-0.121-12.911,3.422-18.252c3.813-5.945,10.455-9.341,17.073-11.233c10.494-2.912,21.46-2.858,32.223-3.919
		c0.43-6.268-1.718-13.783-8.388-15.823c-12.588-4.066-26.171-0.59-37.727,5.006C400.313,367.846,400.313,363.295,400.299,358.745
		 M414.123,399.128c-8.455,3.947-10.065,16.32-4.08,23.019c4.254,4.267,10.777,4.188,16.374,3.864
		c7.528-0.469,13.891-5.032,19.85-9.221c-0.015-7.635,0-15.271,0-22.908C435.502,394.713,424.014,394.23,414.123,399.128z"/>
	<path fill="#414141" d="M482.636,377.884c4.268-11.407,14.804-20.4,26.976-22.104c11.664-1.987,25.487,0.361,33.083,10.267
		c6.751,8.604,7.02,20.091,6.979,30.532c-19.152,0.039-38.303-0.04-57.456,0.054c-0.013,10.549,4.27,22.212,14.455,26.868
		c13.636,5.893,29.741,1.558,41.377-6.844c-0.121,4.59-0.107,9.18-0.094,13.77c-14.374,6.066-30.989,8.856-45.954,3.207
		c-10.857-3.903-19.071-13.757-21.299-25.029C478.636,398.472,478.958,387.613,482.636,377.884 M508.82,366.477
		c-9.487,2.254-15.394,11.447-16.655,20.668c15.059,0.107,30.13,0.066,45.203,0.013c-0.564-5.851-1.585-12.186-6.013-16.454
		C525.503,364.879,516.363,365.12,508.82,366.477z"/>
	<path fill="#414141" d="M582.26,366.021c7.556-5.988,16.508-11.008,26.413-10.912c6.979,0.067,14.427,2.254,18.936,7.892
		c6,7.046,6.469,16.789,6.456,25.605c-0.013,15.637-0.013,31.271,0,46.907c-4.254,0-8.496,0-12.736-0.014
		c-0.175-16.978,0.402-33.981-0.323-50.945c-0.16-6.229-1.624-14.119-8.348-16.428c-10.885-3.649-21.929,1.799-30.451,8.309
		c0.014,19.688,0,39.377,0,59.078c-4.241,0-8.469,0-12.696,0c0-25.957-0.014-51.912-0.014-77.868c4.228,0,8.469,0,12.71,0
		C582.22,360.438,582.232,363.215,582.26,366.021z"/>
	<path fill="#414141" d="M660.665,358.745c12.843-3.181,26.412-5.045,39.484-2.161c5.704,1.277,11.192,4.27,14.668,9.06
		c3.435,4.631,4.495,10.562,4.469,16.227c0.013,17.876-0.013,35.753,0,53.644c-4.214,0-8.429,0-12.642,0
		c-0.028-2.765-0.041-5.53-0.067-8.281c-8.885,7.341-20.454,12.374-32.157,10.456c-10.429-1.478-19.34-10.442-20.359-20.978
		c-0.578-6.282-0.135-13.032,3.461-18.428c3.813-5.865,10.388-9.233,16.952-11.126c10.507-2.925,21.5-2.871,32.291-3.932
		c0.43-6.296-1.745-13.824-8.456-15.851c-12.575-4.025-26.117-0.563-37.659,5.033C660.678,367.846,660.678,363.295,660.665,358.745
		 M674.581,399.075c-8.548,3.906-10.199,16.387-4.146,23.098c4.269,4.24,10.751,4.161,16.348,3.838
		c7.528-0.469,13.89-5.02,19.849-9.221c-0.014-7.635,0-15.271,0-22.908C695.895,394.7,684.459,394.244,674.581,399.075z"/>
	<path fill="#414141" d="M749.443,361.389c14.146-9.555,32.841-6.87,47.779-0.643c0.026,4.789,0,9.581,0.093,14.387
		c-8.038-5.61-17.54-9.864-27.525-9.396c-5.463-0.025-11.77,1.438-15.019,6.216c-2.321,4.468-1.624,11.259,3.329,13.662
		c11.126,5.784,25.218,3.57,35.391,11.554c6.724,5.007,8.053,14.51,5.812,22.145c-2.523,7.705-9.623,13.101-17.166,15.408
		c-13.971,4.106-29.111,1.569-42.088-4.536c0-4.966,0-9.919,0-14.87c8.577,6.388,18.91,11.3,29.835,10.816
		c5.85,0,12.95-1.073,16.212-6.563c2.227-4.644,1.663-11.743-3.651-14.024c-11.367-5.167-25.298-3.543-35.458-11.557
		C737.057,385.654,738.814,368.396,749.443,361.389z"/>
	<path fill="#414141" d="M980.042,358.558c10.87-5.463,24.17-4.066,34.572,1.838c2.389-5.047,8.993-1.932,13.341-2.736
		c-0.014,23.244,0,46.489-0.027,69.735c-0.014,8.924-1.45,18.387-6.818,25.781c-4.697,6.481-12.561,9.903-20.306,10.991
		c-10.911,1.705-22.05,0.175-32.667-2.495c0.026-4.216,0.026-8.43,0.014-12.643c10.482,3.045,21.5,5.059,32.412,3.408
		c5.046-0.98,10.052-3.826,12.32-8.604c2.953-5.985,2.282-12.844,2.323-19.285c-7.825,6.415-17.729,10.655-28.024,9.328
		c-9.072-0.564-17.514-6.027-21.769-14.039c-5.407-9.838-6.053-21.555-4.859-32.491C962.219,375.522,968.942,363.75,980.042,358.558
		 M974.579,383.735c-2.254,9.22-2.067,19.258,1.301,28.184c2.297,6.241,8.698,10.334,15.3,10.16
		c8.737,0.779,17.086-2.886,24.063-7.852c-0.052-14.32,0.015-28.641-0.039-42.96c-7.838-3.556-16.642-5.234-25.164-3.624
		C982.296,369.429,976.418,376.151,974.579,383.735z"/>
	<path fill="#414141" d="M1135.604,356.115c10.777-2.308,23.084-0.631,31.524,6.913c8.16,6.991,12.147,17.755,12.737,28.29
		c0.86,12.052-0.805,25.178-8.763,34.774c-12.965,16.413-41.74,15.97-54.047-1.007c-8.563-11.543-9.394-27.003-7.019-40.706
		C1112.317,371.175,1122.048,358.799,1135.604,356.115 M1138.06,366.383c-8.242,2.106-13.529,10.012-14.885,18.036
		c-2.052,11.142-2.039,23.515,3.639,33.647c6.87,12.267,26.976,12.829,34.679,1.14c5.569-8.173,5.797-18.574,5.3-28.103
		c-0.523-7.784-2.736-16.24-9.111-21.299C1152.258,365.294,1144.649,365.066,1138.06,366.383z"/>
	<path fill="#414141" d="M1282.522,356.343c12.133-2.805,26.896-1.101,35.337,8.993c7.261,8.644,7.61,20.52,7.543,31.243
		c-19.152,0.039-38.304-0.04-57.456,0.054c-0.013,10.535,4.256,22.172,14.401,26.842c13.649,5.933,29.782,1.597,41.431-6.817
		c-0.12,4.59-0.107,9.18-0.095,13.783c-10.924,4.307-22.721,7.569-34.559,5.839c-10.965-0.94-21.903-6.321-27.861-15.823
		c-6.672-10.63-7.141-24.037-4.858-36.063C1258.954,371.16,1269.155,359.337,1282.522,356.343 M1274.563,372.436
		c-3.893,3.972-5.637,9.368-6.684,14.709c15.072,0.107,30.144,0.066,45.215,0.013c-0.349-8.024-3.436-17.324-11.797-20.13
		C1292.36,364.382,1281.167,365.12,1274.563,372.436z"/>
	<path fill="#414141" d="M1360.282,356.477c12.321-3.072,25.313-0.508,36.855,4.281c0.013,4.792,0,9.569,0.093,14.375
		c-8.025-5.597-17.502-9.851-27.459-9.396c-5.516-0.039-11.877,1.424-15.125,6.268c-2.282,4.483-1.557,11.246,3.409,13.623
		c11.112,5.744,25.149,3.57,35.337,11.516c6.71,4.991,8.065,14.468,5.851,22.091c-2.47,7.649-9.474,13.057-16.938,15.406
		c-14.038,4.228-29.283,1.692-42.342-4.455c0-4.952,0-9.904,0-14.857c8.91,6.671,19.782,11.609,31.149,10.765
		c5.704-0.082,12.656-1.639,15.301-7.315c1.637-4.604,1.033-11.086-4.054-13.22c-10.615-4.818-23.165-3.744-33.257-9.972
		c-8.415-5.006-10.938-16.735-6.966-25.366C1345.291,362.852,1352.713,358.276,1360.282,356.477z"/>
	<path fill="#414141" d="M1569.327,356.128c11.892-2.469,26.185-0.644,34.397,9.208c7.248,8.629,7.61,20.52,7.543,31.243
		c-19.152,0.039-38.303-0.04-57.456,0.054c-0.08,10.898,4.658,22.99,15.435,27.312c13.487,5.181,29.016,0.939,40.397-7.287
		c-0.136,4.59-0.107,9.18-0.094,13.783c-10.979,4.335-22.829,7.583-34.692,5.824c-11.543-0.992-23.005-7.046-28.681-17.406
		c-5.745-10.456-6.107-23.07-3.894-34.56C1544.9,370.771,1555.584,358.786,1569.327,356.128 M1570.319,366.504
		c-9.447,2.279-15.312,11.447-16.574,20.641c15.072,0.107,30.143,0.066,45.216,0.013c-0.578-5.851-1.585-12.199-6.026-16.454
		C1587.068,364.853,1577.877,365.106,1570.319,366.504z"/>
	<path fill="#414141" d="M1643.854,366.021c8.254-6.605,18.467-11.986,29.378-10.724c6.616,0.469,13.247,3.501,17.059,9.098
		c5.273,7.329,5.367,16.789,5.381,25.461c-0.039,15.219-0.014,30.438-0.014,45.657c-4.253,0-8.508,0-12.736,0
		c-0.174-16.964,0.402-33.929-0.308-50.866c-0.188-6.214-1.557-14.104-8.254-16.479c-10.897-3.732-22.01,1.729-30.561,8.268
		c0.015,19.688,0,39.377,0,59.078c-4.24,0-8.48,0-12.695,0c0-25.957-0.015-51.912-0.015-77.868c4.229,0,8.456,0,12.71,0
		C1643.799,360.438,1643.813,363.215,1643.854,366.021z"/>
	<path fill="#414141" d="M1744.791,355.955c11.382-2.442,23.017,0.749,33.257,5.718c-0.012,4.951-0.025,9.902,0,14.868
		c-7.313-5.891-16.023-11.247-25.768-10.804c-6.724-0.322-13.487,2.711-17.555,8.094c-5.274,6.817-6.268,15.85-6.119,24.197
		c0.335,8.563,2.522,17.958,9.528,23.581c5.678,4.778,13.597,5.154,20.628,4.013c7.302-1.396,13.541-5.758,19.273-10.307
		c-0.028,4.911-0.028,9.81,0,14.722c-9.274,4.443-19.54,7.865-29.942,6.362c-9.704-0.819-19.421-5.222-25.138-13.313
		c-8.012-11.287-8.711-26.184-6.241-39.377C1719.373,369.897,1730.768,358.142,1744.791,355.955z"/>
	<path fill="#414141" d="M1834.994,358.745c13.193-3.261,27.217-5.181,40.598-1.878c6.576,1.665,12.75,5.945,15.595,12.252
		c2.095,4.363,2.442,9.275,2.442,14.053c-0.025,17.447-0.012,34.895-0.012,52.342c-4.229,0-8.442,0-12.643,0
		c-0.041-2.765-0.054-5.53-0.067-8.281c-8.897,7.341-20.467,12.387-32.171,10.456c-10.427-1.478-19.325-10.442-20.346-20.964
		c-0.577-6.256-0.147-12.992,3.422-18.374c3.8-5.892,10.374-9.272,16.938-11.179c10.522-2.939,21.526-2.886,32.345-3.946
		c0.43-6.296-1.731-13.797-8.429-15.837c-12.588-4.039-26.143-0.576-37.686,5.02
		C1834.994,367.846,1834.994,363.295,1834.994,358.745 M1848.897,399.075c-8.55,3.918-10.187,16.414-4.106,23.124
		c4.268,4.201,10.723,4.135,16.307,3.812c7.529-0.455,13.903-5.02,19.863-9.221c-0.015-7.635,0-15.271,0-22.908
		C1870.225,394.7,1858.776,394.244,1848.897,399.075z"/>
	<path fill="#414141" d="M1979.269,356.64c11.878-3.048,26.197-1.867,35.216,7.287c8.362,8.604,8.938,21.354,8.805,32.652
		c-19.151,0.039-38.316-0.04-57.468,0.054c-0.014,10.576,4.295,22.252,14.521,26.896c13.62,5.851,29.699,1.529,41.323-6.872
		c-0.136,4.59-0.107,9.18-0.095,13.783c-10.938,4.321-22.749,7.569-34.585,5.839c-10.616-0.94-21.207-5.96-27.259-14.953
		c-7.085-10.468-7.703-23.969-5.623-36.074C1956.399,372.087,1966.103,360.087,1979.269,356.64 M1972.518,372.368
		c-3.934,3.985-5.717,9.408-6.738,14.776c15.061,0.107,30.131,0.066,45.188,0.013c-0.335-8.024-3.422-17.313-11.77-20.117
		C1990.288,364.396,1979.121,365.106,1972.518,372.368z"/>
	<path fill="#414141" d="M2047.246,361.389c14.132-9.555,32.867-6.884,47.791-0.616c0,4.777-0.027,9.568,0.081,14.347
		c-10.576-7.543-24.909-12.522-37.525-7.342c-7.382,2.417-8.71,14.16-1.757,17.797c11.098,5.812,25.177,3.611,35.378,11.527
		c6.749,4.968,8.132,14.456,5.932,22.104c-2.51,7.771-9.664,13.233-17.261,15.516c-13.958,4.121-29.082,1.558-42.034-4.536
		c0-4.952,0-9.904,0-14.857c8.59,6.375,18.924,11.301,29.862,10.804c5.839,0,12.924-1.086,16.199-6.576
		c2.174-4.604,1.677-11.608-3.544-13.944c-11.407-5.261-25.433-3.57-35.634-11.662
		C2034.871,385.601,2036.63,368.383,2047.246,361.389z"/>
	<path fill="#414141" d="M1053.991,357.646c4.228,0,8.469,0,12.723,0c0,3.919,0,7.838,0,11.756
		c6.416-4.83,13.193-9.891,21.339-11.153c4.618-0.979,9.328-0.294,13.945,0.392c-0.027,4.521-0.04,9.059,0.054,13.606
		c-7.892-1.314-16.468-2.307-23.957,1.155c-4.119,1.798-7.81,4.415-11.408,7.073c0.041,18.347,0.014,36.692,0.014,55.039
		c-4.24,0-8.482,0-12.695,0C1054.005,409.557,1053.991,383.602,1053.991,357.646z"/>
	<path fill="#414141" d="M1200.278,357.646c4.229,0,8.47,0,12.724,0c0,3.919,0,7.838,0,11.756
		c6.348-4.778,13.031-9.798,21.085-11.097c4.697-1.05,9.502-0.379,14.199,0.335c-0.028,4.521-0.041,9.059,0.054,13.606
		c-7.892-1.314-16.481-2.307-23.971,1.169c-4.134,1.799-7.812,4.401-11.395,7.073c0.041,18.333,0,36.679,0.014,55.025
		c-4.24,0-8.481,0-12.695,0C1200.293,409.557,1200.278,383.602,1200.278,357.646z"/>
	<path fill="#414141" d="M1419.134,357.646c4.227,0,8.469,0,12.722,0c-0.013,25.956-0.025,51.911-0.013,77.868
		c-4.254,0-8.482,0-12.695,0C1419.147,409.557,1419.134,383.602,1419.134,357.646z"/>
	<path fill="#414141" d="M1794.919,357.646c4.227,0,8.468,0,12.723,0c-0.014,25.956-0.026,51.911-0.014,77.868
		c-4.254,0-8.482,0-12.696,0C1794.919,409.557,1794.919,383.602,1794.919,357.646z"/>
</g>
<g id="_x23_729a1fff">
	<path fill="#729A1F" d="M599.411,54.359c21.327-9.206,45.175-10.308,68.031-8.348l0.416,0.014c-0.013,12.602-0.013,25.191,0,37.78
		c-12.522-1.691-25.58-2.174-37.887,1.1c-5.986,1.691-12.04,4.55-15.649,9.824c-4.469,6.241-2.925,15.985,3.462,20.347
		c4.859,3.314,10.63,4.912,16.252,6.415c23.501,5.65,48.261,8.455,69.709,20.374c11.756,6.415,21.54,17.044,24.908,30.224
		c4.148,15.998,2.471,33.901-6.442,48.033c-8.132,12.965-21.177,22.17-35.148,27.943c-17.085,7.059-35.78,8.763-54.087,8.857
		c-11.743-0.443-23.526-0.979-35.068-3.248c-14.052-2.805-27.795-7.098-41.081-12.44c-0.041-16.266-0.015-32.519-0.015-48.784
		c2.203,0.28,4.751-0.27,6.631,1.248c19.527,14.91,43.523,24.117,68.07,25.634c13.247,0.121,28.05,0.671,39.23-7.649
		c6.844-4.576,8.281-15.033,3.637-21.623c-4.067-5.502-10.737-8.266-17.099-10.119c-14.454-3.918-29.365-5.797-43.805-9.77
		c-11.019-3.234-21.998-7.193-31.593-13.609c-10.59-6.804-18.603-17.514-21.716-29.754c-3.568-14.186-2.979-29.969,4.241-42.947
		C571.979,70.129,585.306,60.546,599.411,54.359z"/>
	<path fill="#729A1F" d="M685.318,48.36c12.777,2.389,25.407,5.677,37.552,10.374c0,15.649,0.041,31.311-0.013,46.973
		c-5.932,0.295-10.147-4.106-14.844-6.925c-6.939-4.281-14.494-7.435-22.077-10.375l-0.686-0.269
		C685.333,74.88,685.238,61.62,685.318,48.36z"/>
</g>
</svg>
